<svg width="226" height="274" viewBox="0 0 226 274" fill="none" xmlns="http://www.w3.org/2000/svg">
<g filter="url(#filter0_d_2868_319)">
<rect x="4" width="218" height="266" rx="8" fill="white"/>
</g>
<path d="M24.2656 30.5938C23.1406 30.5938 22.2943 30.3073 21.7266 29.7344C21.1589 29.1615 20.875 28.3021 20.875 27.1562V26.5156H22.4219V27.1719C22.4219 27.8438 22.5755 28.3464 22.8828 28.6797C23.1901 29.0182 23.651 29.1875 24.2656 29.1875H25.0625L24.9062 30.5938H24.2656ZM21.6875 27.1562C18.9583 27.1562 17.5938 25.2812 17.5938 21.5312C17.5938 17.6771 18.9583 15.75 21.6875 15.75C24.4167 15.75 25.7812 17.6771 25.7812 21.5312C25.7812 25.2812 24.4167 27.1562 21.6875 27.1562ZM21.6875 25.7188C23.3021 25.7188 24.1094 24.3229 24.1094 21.5312C24.1094 18.6354 23.3021 17.1875 21.6875 17.1875C20.0729 17.1875 19.2656 18.6354 19.2656 21.5312C19.2656 24.3229 20.0729 25.7188 21.6875 25.7188ZM29.978 27.1562C29.1082 27.1562 28.4337 26.8984 27.9546 26.3828C27.4806 25.862 27.2436 25.1302 27.2436 24.1875V18.7188H28.8999V24.1875C28.8999 24.6615 29.0353 25.0286 29.3061 25.2891C29.577 25.5443 29.9572 25.6719 30.4467 25.6719C31.0509 25.6719 31.5066 25.4818 31.8139 25.1016C32.1212 24.7161 32.2749 24.0729 32.2749 23.1719L32.6967 25.4062H32.1499C32.0197 25.9688 31.7645 26.401 31.3842 26.7031C31.004 27.0052 30.5353 27.1562 29.978 27.1562ZM32.4155 27.0781L32.2749 25.0938V23.6406H33.9311V25.5L35.0717 25.6719V27L32.4155 27.0781ZM32.2749 24.6562V18.7188H33.9311V24.1875L32.2749 24.6562ZM41.5966 27.0781L41.4872 24.625L41.2685 23.9375V21.7969C41.2685 21.2448 41.0732 20.8411 40.6826 20.5859C40.2971 20.3255 39.7216 20.1849 38.956 20.1641L36.9716 20.1094L37.1279 18.6406L38.7997 18.6641C40.1695 18.6849 41.1852 18.9818 41.8466 19.5547C42.5133 20.1224 42.8466 20.9531 42.8466 22.0469V25.5L44.2529 25.6719V27L41.5966 27.0781ZM38.6747 27.1562C37.8102 27.1562 37.1409 26.9479 36.6669 26.5312C36.193 26.1146 35.956 25.526 35.956 24.7656C35.956 23.8906 36.2815 23.2188 36.9326 22.75C37.5888 22.2812 38.5133 22.0469 39.706 22.0469C40.2008 22.0469 40.6409 22.0781 41.0263 22.1406C41.4169 22.1979 41.7633 22.2865 42.0654 22.4062L41.7216 23.5312C41.3727 23.4531 41.0315 23.4089 40.6982 23.3984C40.3649 23.3828 40.0237 23.375 39.6747 23.375C38.2372 23.375 37.5185 23.8125 37.5185 24.6875C37.5185 25.0521 37.6409 25.3333 37.8857 25.5312C38.1357 25.7292 38.4872 25.8281 38.9404 25.8281C39.456 25.8281 39.8857 25.7396 40.2294 25.5625C40.5784 25.3854 40.8388 25.1589 41.0107 24.8828C41.1826 24.6068 41.2685 24.3229 41.2685 24.0312V23.125L41.7529 25.25H41.0966L41.3622 25C41.3622 25.4792 41.2503 25.8802 41.0263 26.2031C40.8076 26.5208 40.4977 26.7604 40.0966 26.9219C39.6956 27.0781 39.2216 27.1562 38.6747 27.1562ZM48.434 23.4375L47.9496 20.8438H48.5903C48.684 19.3229 49.4444 18.5625 50.8715 18.5625C51.7257 18.5625 52.3455 18.8073 52.7309 19.2969C53.1163 19.7865 53.309 20.5781 53.309 21.6719H51.6684C51.6684 21.0677 51.5772 20.6328 51.3949 20.3672C51.2179 20.1016 50.9288 19.9688 50.5278 19.9688C49.8246 19.9688 49.2986 20.2708 48.9496 20.875C48.6059 21.474 48.434 22.3281 48.434 23.4375ZM44.934 27V25.5469H50.4653V27H44.934ZM46.7778 27V18.7188H48.1215L48.434 21.0938V27H46.7778ZM45.2465 20.1719V18.7188H48.0121L48.1684 20.1719H45.2465ZM59.5995 27.1562C58.3443 27.1562 57.4354 26.8958 56.8729 26.375C56.3156 25.8542 56.037 25.0208 56.037 23.875V22.4688H57.6932V23.7969C57.6932 24.4531 57.8521 24.9297 58.1698 25.2266C58.4927 25.5234 59.0214 25.6719 59.7557 25.6719C60.0162 25.6719 60.2922 25.6589 60.5839 25.6328C60.8755 25.6016 61.2089 25.5625 61.5839 25.5156L61.7714 26.9688C61.4068 27.0312 61.05 27.0781 60.7011 27.1094C60.3573 27.1406 59.9901 27.1562 59.5995 27.1562ZM56.037 23.0938V16.2188H57.6932V23.0938H56.037ZM53.9589 20.1719V18.7188H61.4589V20.1719H53.9589ZM67.9212 27.1562C66.5098 27.1562 65.4186 26.7865 64.6478 26.0469C63.8822 25.3021 63.4994 24.2344 63.4994 22.8438C63.4994 21.4896 63.8249 20.4375 64.4759 19.6875C65.127 18.9375 66.0462 18.5625 67.2337 18.5625C68.3535 18.5625 69.2181 18.901 69.8275 19.5781C70.4421 20.2552 70.7494 21.2396 70.7494 22.5312C70.7494 22.9115 70.7337 23.2656 70.7025 23.5938H64.89V22.3281H69.2494C69.2494 21.5833 69.0723 21.013 68.7181 20.6172C68.364 20.2161 67.8744 20.0156 67.2494 20.0156C66.5462 20.0156 65.9994 20.2552 65.6087 20.7344C65.2233 21.2135 65.0306 21.8906 65.0306 22.7656C65.0306 23.724 65.2962 24.4531 65.8275 24.9531C66.364 25.4531 67.1244 25.7031 68.1087 25.7031C68.4525 25.7031 68.791 25.6849 69.1244 25.6484C69.4577 25.6068 69.7962 25.5521 70.14 25.4844L70.3431 26.9375C69.8535 27.0312 69.4056 27.0911 68.9994 27.1172C68.5931 27.1432 68.2337 27.1562 67.9212 27.1562ZM75.743 23.4375L75.2586 20.8438H75.8993C75.993 19.3229 76.7534 18.5625 78.1805 18.5625C79.0347 18.5625 79.6545 18.8073 80.0399 19.2969C80.4253 19.7865 80.618 20.5781 80.618 21.6719H78.9774C78.9774 21.0677 78.8862 20.6328 78.7039 20.3672C78.5269 20.1016 78.2378 19.9688 77.8368 19.9688C77.1336 19.9688 76.6076 20.2708 76.2586 20.875C75.9149 21.474 75.743 22.3281 75.743 23.4375ZM72.243 27V25.5469H77.7743V27H72.243ZM74.0868 27V18.7188H75.4305L75.743 21.0938V27H74.0868ZM72.5555 20.1719V18.7188H75.3211L75.4774 20.1719H72.5555ZM86.6429 27.1562C85.6845 27.1562 84.9918 26.8958 84.5648 26.375C84.1377 25.8542 83.9241 25.0208 83.9241 23.875V15.2812H85.5804V23.7969C85.5804 24.2344 85.622 24.5911 85.7054 24.8672C85.7887 25.1432 85.9502 25.3464 86.1898 25.4766C86.4345 25.6068 86.7939 25.6719 87.2679 25.6719C87.7002 25.6719 88.2523 25.5729 88.9241 25.375L89.1116 26.8281C88.6898 26.9427 88.2835 27.026 87.8929 27.0781C87.5075 27.1302 87.0908 27.1562 86.6429 27.1562ZM81.4866 16.7344V15.2812H84.0648V16.7344H81.4866ZM90.4099 30.75L90.3318 29.2656L91.6287 29.1094C92.1756 29.0417 92.6417 28.8932 93.0271 28.6641C93.4177 28.4349 93.7511 28.0938 94.0271 27.6406C94.3032 27.1927 94.5454 26.6042 94.7537 25.875L96.8162 18.7188H98.5349L96.1443 26.2656C95.8318 27.2552 95.4802 28.0521 95.0896 28.6562C94.7042 29.2604 94.2459 29.7135 93.7146 30.0156C93.1886 30.3177 92.5558 30.5104 91.8162 30.5938L90.4099 30.75ZM93.5506 27L90.2537 18.7188H91.9724L94.6756 25.75H94.9256V27H93.5506ZM110.639 22.7812V21.2969H112.936C113.556 21.2969 114.038 21.1328 114.382 20.8047C114.731 20.4766 114.905 20.0156 114.905 19.4219C114.905 18.7708 114.731 18.2708 114.382 17.9219C114.038 17.5677 113.556 17.3906 112.936 17.3906H110.671L110.483 15.9062H112.936C114.087 15.9062 114.975 16.1979 115.6 16.7812C116.231 17.3646 116.546 18.1927 116.546 19.2656C116.546 20.3802 116.231 21.2448 115.6 21.8594C114.975 22.474 114.087 22.7812 112.936 22.7812H110.639ZM109.124 27V15.9062H110.749V27H109.124ZM115.077 27L112.592 21.7812H114.311L116.952 27H115.077ZM122.539 27.1562C121.128 27.1562 120.037 26.7865 119.266 26.0469C118.5 25.3021 118.117 24.2344 118.117 22.8438C118.117 21.4896 118.443 20.4375 119.094 19.6875C119.745 18.9375 120.664 18.5625 121.852 18.5625C122.972 18.5625 123.836 18.901 124.446 19.5781C125.06 20.2552 125.367 21.2396 125.367 22.5312C125.367 22.9115 125.352 23.2656 125.321 23.5938H119.508V22.3281H123.867C123.867 21.5833 123.69 21.013 123.336 20.6172C122.982 20.2161 122.492 20.0156 121.867 20.0156C121.164 20.0156 120.617 20.2552 120.227 20.7344C119.841 21.2135 119.649 21.8906 119.649 22.7656C119.649 23.724 119.914 24.4531 120.446 24.9531C120.982 25.4531 121.742 25.7031 122.727 25.7031C123.071 25.7031 123.409 25.6849 123.742 25.6484C124.076 25.6068 124.414 25.5521 124.758 25.4844L124.961 26.9375C124.472 27.0312 124.024 27.0911 123.617 27.1172C123.211 27.1432 122.852 27.1562 122.539 27.1562ZM129.822 27L126.861 18.7188H128.627L130.853 25.5938H130.994L133.22 18.7188H134.986L132.025 27H129.822ZM140.745 27.1562C139.334 27.1562 138.243 26.7865 137.472 26.0469C136.706 25.3021 136.323 24.2344 136.323 22.8438C136.323 21.4896 136.649 20.4375 137.3 19.6875C137.951 18.9375 138.87 18.5625 140.058 18.5625C141.178 18.5625 142.042 18.901 142.651 19.5781C143.266 20.2552 143.573 21.2396 143.573 22.5312C143.573 22.9115 143.558 23.2656 143.526 23.5938H137.714V22.3281H142.073C142.073 21.5833 141.896 21.013 141.542 20.6172C141.188 20.2161 140.698 20.0156 140.073 20.0156C139.37 20.0156 138.823 20.2552 138.433 20.7344C138.047 21.2135 137.855 21.8906 137.855 22.7656C137.855 23.724 138.12 24.4531 138.651 24.9531C139.188 25.4531 139.948 25.7031 140.933 25.7031C141.276 25.7031 141.615 25.6849 141.948 25.6484C142.282 25.6068 142.62 25.5521 142.964 25.4844L143.167 26.9375C142.678 27.0312 142.23 27.0911 141.823 27.1172C141.417 27.1432 141.058 27.1562 140.745 27.1562ZM150.848 27V21.6094C150.848 21.1094 150.718 20.724 150.458 20.4531C150.197 20.1823 149.833 20.0469 149.364 20.0469C148.062 20.0469 147.411 20.8125 147.411 22.3438L146.926 20.2188H147.567C147.614 19.6615 147.817 19.2474 148.176 18.9766C148.536 18.7005 149.062 18.5625 149.755 18.5625C150.63 18.5625 151.307 18.8281 151.786 19.3594C152.265 19.8906 152.505 20.6406 152.505 21.6094V27H150.848ZM145.755 27V18.7188H147.255L147.411 20.4688V27H145.755ZM157.42 27.1562C156.55 27.1562 155.876 26.8984 155.397 26.3828C154.923 25.862 154.686 25.1302 154.686 24.1875V18.7188H156.342V24.1875C156.342 24.6615 156.477 25.0286 156.748 25.2891C157.019 25.5443 157.399 25.6719 157.889 25.6719C158.493 25.6719 158.949 25.4818 159.256 25.1016C159.563 24.7161 159.717 24.0729 159.717 23.1719L160.139 25.4062H159.592C159.462 25.9688 159.206 26.401 158.826 26.7031C158.446 27.0052 157.977 27.1562 157.42 27.1562ZM159.857 27.0781L159.717 25.0938V23.6406H161.373V25.5L162.514 25.6719V27L159.857 27.0781ZM159.717 24.6562V18.7188H161.373V24.1875L159.717 24.6562ZM168.054 27.1562C166.643 27.1562 165.552 26.7865 164.781 26.0469C164.015 25.3021 163.632 24.2344 163.632 22.8438C163.632 21.4896 163.958 20.4375 164.609 19.6875C165.26 18.9375 166.179 18.5625 167.367 18.5625C168.487 18.5625 169.351 18.901 169.96 19.5781C170.575 20.2552 170.882 21.2396 170.882 22.5312C170.882 22.9115 170.867 23.2656 170.835 23.5938H165.023V22.3281H169.382C169.382 21.5833 169.205 21.013 168.851 20.6172C168.497 20.2161 168.007 20.0156 167.382 20.0156C166.679 20.0156 166.132 20.2552 165.742 20.7344C165.356 21.2135 165.164 21.8906 165.164 22.7656C165.164 23.724 165.429 24.4531 165.96 24.9531C166.497 25.4531 167.257 25.7031 168.242 25.7031C168.585 25.7031 168.924 25.6849 169.257 25.6484C169.591 25.6068 169.929 25.5521 170.273 25.4844L170.476 26.9375C169.987 27.0312 169.539 27.0911 169.132 27.1172C168.726 27.1432 168.367 27.1562 168.054 27.1562Z" fill="#2E1F30"/>
<rect x="52" y="149" width="13" height="71" rx="6.5" fill="#2E1F30"/>
<rect x="89" y="112" width="13" height="108" rx="6.5" fill="#2E1F30"/>
<rect x="126" y="82" width="13" height="138" rx="6.5" fill="#2E1F30"/>
<rect x="163" y="83" width="13" height="138" rx="6.5" fill="#2E1F30"/>
<rect x="89" y="158" width="13" height="62" rx="6.5" fill="#2E1F30"/>
<rect x="52" y="189" width="13" height="32" rx="6.5" fill="#2E1F30"/>
<rect x="126" y="114" width="13" height="106" rx="6.5" fill="#6BBD00"/>
<rect x="163" y="137" width="13" height="84" rx="6.5" fill="#2E1F30"/>
<path d="M59.632 242.584L57.964 240.916C57.556 241.028 57.14 241.084 56.716 241.084C55.94 241.084 55.232 240.904 54.592 240.544C53.952 240.176 53.444 239.668 53.068 239.02C52.7 238.364 52.516 237.628 52.516 236.812C52.516 235.996 52.7 235.264 53.068 234.616C53.444 233.96 53.952 233.452 54.592 233.092C55.232 232.724 55.94 232.54 56.716 232.54C57.5 232.54 58.212 232.724 58.852 233.092C59.492 233.452 59.996 233.956 60.364 234.604C60.732 235.252 60.916 235.988 60.916 236.812C60.916 237.612 60.74 238.332 60.388 238.972C60.036 239.612 59.552 240.116 58.936 240.484L61.048 242.584H59.632ZM53.632 236.812C53.632 237.476 53.764 238.06 54.028 238.564C54.3 239.068 54.668 239.456 55.132 239.728C55.604 240 56.132 240.136 56.716 240.136C57.3 240.136 57.824 240 58.288 239.728C58.76 239.456 59.128 239.068 59.392 238.564C59.664 238.06 59.8 237.476 59.8 236.812C59.8 236.14 59.664 235.556 59.392 235.06C59.128 234.556 58.764 234.168 58.3 233.896C57.836 233.624 57.308 233.488 56.716 233.488C56.124 233.488 55.596 233.624 55.132 233.896C54.668 234.168 54.3 234.556 54.028 235.06C53.764 235.556 53.632 236.14 53.632 236.812ZM61.709 233.32V232.324H63.965V241H62.861V233.32H61.709Z" fill="white" fill-opacity="0.62"/>
<path d="M96.632 242.584L94.964 240.916C94.556 241.028 94.14 241.084 93.716 241.084C92.94 241.084 92.232 240.904 91.592 240.544C90.952 240.176 90.444 239.668 90.068 239.02C89.7 238.364 89.516 237.628 89.516 236.812C89.516 235.996 89.7 235.264 90.068 234.616C90.444 233.96 90.952 233.452 91.592 233.092C92.232 232.724 92.94 232.54 93.716 232.54C94.5 232.54 95.212 232.724 95.852 233.092C96.492 233.452 96.996 233.956 97.364 234.604C97.732 235.252 97.916 235.988 97.916 236.812C97.916 237.612 97.74 238.332 97.388 238.972C97.036 239.612 96.552 240.116 95.936 240.484L98.048 242.584H96.632ZM90.632 236.812C90.632 237.476 90.764 238.06 91.028 238.564C91.3 239.068 91.668 239.456 92.132 239.728C92.604 240 93.132 240.136 93.716 240.136C94.3 240.136 94.824 240 95.288 239.728C95.76 239.456 96.128 239.068 96.392 238.564C96.664 238.06 96.8 237.476 96.8 236.812C96.8 236.14 96.664 235.556 96.392 235.06C96.128 234.556 95.764 234.168 95.3 233.896C94.836 233.624 94.308 233.488 93.716 233.488C93.124 233.488 92.596 233.624 92.132 233.896C91.668 234.168 91.3 234.556 91.028 235.06C90.764 235.556 90.632 236.14 90.632 236.812ZM98.865 240.124C99.881 239.308 100.677 238.64 101.253 238.12C101.829 237.592 102.313 237.044 102.705 236.476C103.105 235.9 103.305 235.336 103.305 234.784C103.305 234.264 103.177 233.856 102.921 233.56C102.673 233.256 102.269 233.104 101.709 233.104C101.165 233.104 100.741 233.276 100.437 233.62C100.141 233.956 99.981 234.408 99.957 234.976H98.901C98.933 234.08 99.205 233.388 99.717 232.9C100.229 232.412 100.889 232.168 101.697 232.168C102.521 232.168 103.173 232.396 103.653 232.852C104.141 233.308 104.385 233.936 104.385 234.736C104.385 235.4 104.185 236.048 103.785 236.68C103.393 237.304 102.945 237.856 102.441 238.336C101.937 238.808 101.293 239.36 100.509 239.992H104.637V240.904H98.865V240.124Z" fill="white" fill-opacity="0.62"/>
<path d="M131.632 242.584L129.964 240.916C129.556 241.028 129.14 241.084 128.716 241.084C127.94 241.084 127.232 240.904 126.592 240.544C125.952 240.176 125.444 239.668 125.068 239.02C124.7 238.364 124.516 237.628 124.516 236.812C124.516 235.996 124.7 235.264 125.068 234.616C125.444 233.96 125.952 233.452 126.592 233.092C127.232 232.724 127.94 232.54 128.716 232.54C129.5 232.54 130.212 232.724 130.852 233.092C131.492 233.452 131.996 233.956 132.364 234.604C132.732 235.252 132.916 235.988 132.916 236.812C132.916 237.612 132.74 238.332 132.388 238.972C132.036 239.612 131.552 240.116 130.936 240.484L133.048 242.584H131.632ZM125.632 236.812C125.632 237.476 125.764 238.06 126.028 238.564C126.3 239.068 126.668 239.456 127.132 239.728C127.604 240 128.132 240.136 128.716 240.136C129.3 240.136 129.824 240 130.288 239.728C130.76 239.456 131.128 239.068 131.392 238.564C131.664 238.06 131.8 237.476 131.8 236.812C131.8 236.14 131.664 235.556 131.392 235.06C131.128 234.556 130.764 234.168 130.3 233.896C129.836 233.624 129.308 233.488 128.716 233.488C128.124 233.488 127.596 233.624 127.132 233.896C126.668 234.168 126.3 234.556 126.028 235.06C125.764 235.556 125.632 236.14 125.632 236.812ZM133.973 234.508C134.029 233.772 134.313 233.196 134.825 232.78C135.337 232.364 136.001 232.156 136.817 232.156C137.361 232.156 137.829 232.256 138.221 232.456C138.621 232.648 138.921 232.912 139.121 233.248C139.329 233.584 139.433 233.964 139.433 234.388C139.433 234.884 139.289 235.312 139.001 235.672C138.721 236.032 138.353 236.264 137.897 236.368V236.428C138.417 236.556 138.829 236.808 139.133 237.184C139.437 237.56 139.589 238.052 139.589 238.66C139.589 239.116 139.485 239.528 139.277 239.896C139.069 240.256 138.757 240.54 138.341 240.748C137.925 240.956 137.425 241.06 136.841 241.06C135.993 241.06 135.297 240.84 134.753 240.4C134.209 239.952 133.905 239.32 133.841 238.504H134.897C134.953 238.984 135.149 239.376 135.485 239.68C135.821 239.984 136.269 240.136 136.829 240.136C137.389 240.136 137.813 239.992 138.101 239.704C138.397 239.408 138.545 239.028 138.545 238.564C138.545 237.964 138.345 237.532 137.945 237.268C137.545 237.004 136.941 236.872 136.133 236.872H135.857V235.96H136.145C136.881 235.952 137.437 235.832 137.813 235.6C138.189 235.36 138.377 234.992 138.377 234.496C138.377 234.072 138.237 233.732 137.957 233.476C137.685 233.22 137.293 233.092 136.781 233.092C136.285 233.092 135.885 233.22 135.581 233.476C135.277 233.732 135.097 234.076 135.041 234.508H133.973Z" fill="white" fill-opacity="0.62"/>
<path d="M168.632 242.584L166.964 240.916C166.556 241.028 166.14 241.084 165.716 241.084C164.94 241.084 164.232 240.904 163.592 240.544C162.952 240.176 162.444 239.668 162.068 239.02C161.7 238.364 161.516 237.628 161.516 236.812C161.516 235.996 161.7 235.264 162.068 234.616C162.444 233.96 162.952 233.452 163.592 233.092C164.232 232.724 164.94 232.54 165.716 232.54C166.5 232.54 167.212 232.724 167.852 233.092C168.492 233.452 168.996 233.956 169.364 234.604C169.732 235.252 169.916 235.988 169.916 236.812C169.916 237.612 169.74 238.332 169.388 238.972C169.036 239.612 168.552 240.116 167.936 240.484L170.048 242.584H168.632ZM162.632 236.812C162.632 237.476 162.764 238.06 163.028 238.564C163.3 239.068 163.668 239.456 164.132 239.728C164.604 240 165.132 240.136 165.716 240.136C166.3 240.136 166.824 240 167.288 239.728C167.76 239.456 168.128 239.068 168.392 238.564C168.664 238.06 168.8 237.476 168.8 236.812C168.8 236.14 168.664 235.556 168.392 235.06C168.128 234.556 167.764 234.168 167.3 233.896C166.836 233.624 166.308 233.488 165.716 233.488C165.124 233.488 164.596 233.624 164.132 233.896C163.668 234.168 163.3 234.556 163.028 235.06C162.764 235.556 162.632 236.14 162.632 236.812ZM170.973 234.508C171.029 233.772 171.313 233.196 171.825 232.78C172.337 232.364 173.001 232.156 173.817 232.156C174.361 232.156 174.829 232.256 175.221 232.456C175.621 232.648 175.921 232.912 176.121 233.248C176.329 233.584 176.433 233.964 176.433 234.388C176.433 234.884 176.289 235.312 176.001 235.672C175.721 236.032 175.353 236.264 174.897 236.368V236.428C175.417 236.556 175.829 236.808 176.133 237.184C176.437 237.56 176.589 238.052 176.589 238.66C176.589 239.116 176.485 239.528 176.277 239.896C176.069 240.256 175.757 240.54 175.341 240.748C174.925 240.956 174.425 241.06 173.841 241.06C172.993 241.06 172.297 240.84 171.753 240.4C171.209 239.952 170.905 239.32 170.841 238.504H171.897C171.953 238.984 172.149 239.376 172.485 239.68C172.821 239.984 173.269 240.136 173.829 240.136C174.389 240.136 174.813 239.992 175.101 239.704C175.397 239.408 175.545 239.028 175.545 238.564C175.545 237.964 175.345 237.532 174.945 237.268C174.545 237.004 173.941 236.872 173.133 236.872H172.857V235.96H173.145C173.881 235.952 174.437 235.832 174.813 235.6C175.189 235.36 175.377 234.992 175.377 234.496C175.377 234.072 175.237 233.732 174.957 233.476C174.685 233.22 174.293 233.092 173.781 233.092C173.285 233.092 172.885 233.22 172.581 233.476C172.277 233.732 172.097 234.076 172.041 234.508H170.973Z" fill="white" fill-opacity="0.62"/>
<defs>
<filter id="filter0_d_2868_319" x="0" y="0" width="226" height="274" filterUnits="userSpaceOnUse" color-interpolation-filters="sRGB">
<feFlood flood-opacity="0" result="BackgroundImageFix"/>
<feColorMatrix in="SourceAlpha" type="matrix" values="0 0 0 0 0 0 0 0 0 0 0 0 0 0 0 0 0 0 127 0" result="hardAlpha"/>
<feOffset dy="4"/>
<feGaussianBlur stdDeviation="2"/>
<feComposite in2="hardAlpha" operator="out"/>
<feColorMatrix type="matrix" values="0 0 0 0 0 0 0 0 0 0 0 0 0 0 0 0 0 0 0.25 0"/>
<feBlend mode="normal" in2="BackgroundImageFix" result="effect1_dropShadow_2868_319"/>
<feBlend mode="normal" in="SourceGraphic" in2="effect1_dropShadow_2868_319" result="shape"/>
</filter>
</defs>
</svg>
