<svg width="112" height="56" viewBox="0 0 112 56" fill="none" xmlns="http://www.w3.org/2000/svg">
<rect width="112" height="48" rx="4" fill="#D9D9D9"/>
<path opacity="0.54" d="M19.848 26.186H22.532V27H18.847V19.333H19.848V26.186ZM23.034 23.964C23.034 23.348 23.1587 22.809 23.408 22.347C23.6574 21.8777 23.9984 21.5147 24.431 21.258C24.871 21.0013 25.3587 20.873 25.894 20.873C26.422 20.873 26.8804 20.9867 27.269 21.214C27.6577 21.4413 27.9474 21.7273 28.138 22.072V20.972H29.15V27H28.138V25.878C27.94 26.23 27.643 26.5233 27.247 26.758C26.8584 26.9853 26.4037 27.099 25.883 27.099C25.3477 27.099 24.8637 26.967 24.431 26.703C23.9984 26.439 23.6574 26.0687 23.408 25.592C23.1587 25.1153 23.034 24.5727 23.034 23.964ZM28.138 23.975C28.138 23.5203 28.0464 23.1243 27.863 22.787C27.6797 22.4497 27.4304 22.193 27.115 22.017C26.807 21.8337 26.466 21.742 26.092 21.742C25.718 21.742 25.377 21.83 25.069 22.006C24.761 22.182 24.5154 22.4387 24.332 22.776C24.1487 23.1133 24.057 23.5093 24.057 23.964C24.057 24.426 24.1487 24.8293 24.332 25.174C24.5154 25.5113 24.761 25.7717 25.069 25.955C25.377 26.131 25.718 26.219 26.092 26.219C26.466 26.219 26.807 26.131 27.115 25.955C27.4304 25.7717 27.6797 25.5113 27.863 25.174C28.0464 24.8293 28.138 24.4297 28.138 23.975ZM33.1406 20.873C33.6613 20.873 34.116 20.9867 34.5046 21.214C34.9006 21.4413 35.194 21.7273 35.3846 22.072V20.972H36.3966V27.132C36.3966 27.682 36.2793 28.1697 36.0446 28.595C35.81 29.0277 35.4726 29.365 35.0326 29.607C34.6 29.849 34.094 29.97 33.5146 29.97C32.7226 29.97 32.0626 29.783 31.5346 29.409C31.0066 29.035 30.695 28.5253 30.5996 27.88H31.5896C31.6996 28.2467 31.927 28.54 32.2716 28.76C32.6163 28.9873 33.0306 29.101 33.5146 29.101C34.0646 29.101 34.512 28.9287 34.8566 28.584C35.2086 28.2393 35.3846 27.7553 35.3846 27.132V25.867C35.1866 26.219 34.8933 26.5123 34.5046 26.747C34.116 26.9817 33.6613 27.099 33.1406 27.099C32.6053 27.099 32.1176 26.967 31.6776 26.703C31.245 26.439 30.904 26.0687 30.6546 25.592C30.4053 25.1153 30.2806 24.5727 30.2806 23.964C30.2806 23.348 30.4053 22.809 30.6546 22.347C30.904 21.8777 31.245 21.5147 31.6776 21.258C32.1176 21.0013 32.6053 20.873 33.1406 20.873ZM35.3846 23.975C35.3846 23.5203 35.293 23.1243 35.1096 22.787C34.9263 22.4497 34.677 22.193 34.3616 22.017C34.0536 21.8337 33.7126 21.742 33.3386 21.742C32.9646 21.742 32.6236 21.83 32.3156 22.006C32.0076 22.182 31.762 22.4387 31.5786 22.776C31.3953 23.1133 31.3036 23.5093 31.3036 23.964C31.3036 24.426 31.3953 24.8293 31.5786 25.174C31.762 25.5113 32.0076 25.7717 32.3156 25.955C32.6236 26.131 32.9646 26.219 33.3386 26.219C33.7126 26.219 34.0536 26.131 34.3616 25.955C34.677 25.7717 34.9263 25.5113 35.1096 25.174C35.293 24.8293 35.3846 24.4297 35.3846 23.975ZM40.5302 27.099C39.9656 27.099 39.4522 26.9707 38.9902 26.714C38.5356 26.4573 38.1762 26.0943 37.9122 25.625C37.6556 25.1483 37.5272 24.5983 37.5272 23.975C37.5272 23.359 37.6592 22.8163 37.9232 22.347C38.1946 21.8703 38.5612 21.5073 39.0232 21.258C39.4852 21.0013 40.0022 20.873 40.5742 20.873C41.1462 20.873 41.6632 21.0013 42.1252 21.258C42.5872 21.5073 42.9502 21.8667 43.2142 22.336C43.4856 22.8053 43.6212 23.3517 43.6212 23.975C43.6212 24.5983 43.4819 25.1483 43.2032 25.625C42.9319 26.0943 42.5616 26.4573 42.0922 26.714C41.6229 26.9707 41.1022 27.099 40.5302 27.099ZM40.5302 26.219C40.8896 26.219 41.2269 26.1347 41.5422 25.966C41.8576 25.7973 42.1106 25.5443 42.3012 25.207C42.4992 24.8697 42.5982 24.459 42.5982 23.975C42.5982 23.491 42.5029 23.0803 42.3122 22.743C42.1216 22.4057 41.8722 22.1563 41.5642 21.995C41.2562 21.8263 40.9226 21.742 40.5632 21.742C40.1966 21.742 39.8592 21.8263 39.5512 21.995C39.2506 22.1563 39.0086 22.4057 38.8252 22.743C38.6419 23.0803 38.5502 23.491 38.5502 23.975C38.5502 24.4663 38.6382 24.8807 38.8142 25.218C38.9976 25.5553 39.2396 25.8083 39.5402 25.977C39.8409 26.1383 40.1709 26.219 40.5302 26.219ZM46.8844 27.099C46.4224 27.099 46.008 27.022 45.6414 26.868C45.2747 26.7067 44.985 26.4867 44.7724 26.208C44.5597 25.922 44.4424 25.5957 44.4204 25.229H45.4544C45.4837 25.5297 45.623 25.7753 45.8724 25.966C46.129 26.1567 46.4627 26.252 46.8734 26.252C47.2547 26.252 47.5554 26.1677 47.7754 25.999C47.9954 25.8303 48.1054 25.6177 48.1054 25.361C48.1054 25.097 47.988 24.9027 47.7534 24.778C47.5187 24.646 47.1557 24.5177 46.6644 24.393C46.217 24.2757 45.8504 24.1583 45.5644 24.041C45.2857 23.9163 45.0437 23.7367 44.8384 23.502C44.6404 23.26 44.5414 22.9447 44.5414 22.556C44.5414 22.248 44.633 21.9657 44.8164 21.709C44.9997 21.4523 45.26 21.2507 45.5974 21.104C45.9347 20.95 46.3197 20.873 46.7524 20.873C47.4197 20.873 47.9587 21.0417 48.3694 21.379C48.78 21.7163 49 22.1783 49.0294 22.765H48.0284C48.0064 22.4497 47.878 22.1967 47.6434 22.006C47.416 21.8153 47.108 21.72 46.7194 21.72C46.36 21.72 46.074 21.797 45.8614 21.951C45.6487 22.105 45.5424 22.3067 45.5424 22.556C45.5424 22.754 45.6047 22.919 45.7294 23.051C45.8614 23.1757 46.0227 23.2783 46.2134 23.359C46.4114 23.4323 46.6827 23.5167 47.0274 23.612C47.46 23.7293 47.812 23.8467 48.0834 23.964C48.3547 24.074 48.5857 24.2427 48.7764 24.47C48.9744 24.6973 49.077 24.9943 49.0844 25.361C49.0844 25.691 48.9927 25.988 48.8094 26.252C48.626 26.516 48.3657 26.725 48.0284 26.879C47.6984 27.0257 47.317 27.099 46.8844 27.099ZM51.3444 25.614L50.1124 28.573H49.4414L50.2444 25.614H51.3444ZM61.0777 27H60.0767L56.0507 20.895V27H55.0497V19.322H56.0507L60.0767 25.416V19.322H61.0777V27ZM63.1141 19.993C62.9234 19.993 62.7621 19.927 62.6301 19.795C62.4981 19.663 62.4321 19.5017 62.4321 19.311C62.4321 19.1203 62.4981 18.959 62.6301 18.827C62.7621 18.695 62.9234 18.629 63.1141 18.629C63.2974 18.629 63.4514 18.695 63.5761 18.827C63.7081 18.959 63.7741 19.1203 63.7741 19.311C63.7741 19.5017 63.7081 19.663 63.5761 19.795C63.4514 19.927 63.2974 19.993 63.1141 19.993ZM63.5981 20.972V27H62.5971V20.972H63.5981ZM67.6031 20.873C68.1238 20.873 68.5785 20.9867 68.9671 21.214C69.3631 21.4413 69.6565 21.7273 69.8471 22.072V20.972H70.8591V27.132C70.8591 27.682 70.7418 28.1697 70.5071 28.595C70.2725 29.0277 69.9351 29.365 69.4951 29.607C69.0625 29.849 68.5565 29.97 67.9771 29.97C67.1851 29.97 66.5251 29.783 65.9971 29.409C65.4691 29.035 65.1575 28.5253 65.0621 27.88H66.0521C66.1621 28.2467 66.3895 28.54 66.7341 28.76C67.0788 28.9873 67.4931 29.101 67.9771 29.101C68.5271 29.101 68.9745 28.9287 69.3191 28.584C69.6711 28.2393 69.8471 27.7553 69.8471 27.132V25.867C69.6491 26.219 69.3558 26.5123 68.9671 26.747C68.5785 26.9817 68.1238 27.099 67.6031 27.099C67.0678 27.099 66.5801 26.967 66.1401 26.703C65.7075 26.439 65.3665 26.0687 65.1171 25.592C64.8678 25.1153 64.7431 24.5727 64.7431 23.964C64.7431 23.348 64.8678 22.809 65.1171 22.347C65.3665 21.8777 65.7075 21.5147 66.1401 21.258C66.5801 21.0013 67.0678 20.873 67.6031 20.873ZM69.8471 23.975C69.8471 23.5203 69.7555 23.1243 69.5721 22.787C69.3888 22.4497 69.1395 22.193 68.8241 22.017C68.5161 21.8337 68.1751 21.742 67.8011 21.742C67.4271 21.742 67.0861 21.83 66.7781 22.006C66.4701 22.182 66.2245 22.4387 66.0411 22.776C65.8578 23.1133 65.7661 23.5093 65.7661 23.964C65.7661 24.426 65.8578 24.8293 66.0411 25.174C66.2245 25.5113 66.4701 25.7717 66.7781 25.955C67.0861 26.131 67.4271 26.219 67.8011 26.219C68.1751 26.219 68.5161 26.131 68.8241 25.955C69.1395 25.7717 69.3888 25.5113 69.5721 25.174C69.7555 24.8293 69.8471 24.4297 69.8471 23.975ZM77.8637 23.755C77.8637 23.9457 77.8527 24.1473 77.8307 24.36H73.0127C73.0494 24.954 73.2511 25.4197 73.6177 25.757C73.9917 26.087 74.4427 26.252 74.9707 26.252C75.4034 26.252 75.7627 26.153 76.0487 25.955C76.3421 25.7497 76.5474 25.4783 76.6647 25.141H77.7427C77.5814 25.7203 77.2587 26.1933 76.7747 26.56C76.2907 26.9193 75.6894 27.099 74.9707 27.099C74.3987 27.099 73.8854 26.9707 73.4307 26.714C72.9834 26.4573 72.6314 26.0943 72.3747 25.625C72.1181 25.1483 71.9897 24.5983 71.9897 23.975C71.9897 23.3517 72.1144 22.8053 72.3637 22.336C72.6131 21.8667 72.9614 21.5073 73.4087 21.258C73.8634 21.0013 74.3841 20.873 74.9707 20.873C75.5427 20.873 76.0487 20.9977 76.4887 21.247C76.9287 21.4963 77.2661 21.841 77.5007 22.281C77.7427 22.7137 77.8637 23.205 77.8637 23.755ZM76.8297 23.546C76.8297 23.1647 76.7454 22.8383 76.5767 22.567C76.4081 22.2883 76.1771 22.0793 75.8837 21.94C75.5977 21.7933 75.2787 21.72 74.9267 21.72C74.4207 21.72 73.9881 21.8813 73.6287 22.204C73.2767 22.5267 73.0751 22.974 73.0237 23.546H76.8297ZM79.999 21.951C80.175 21.6063 80.4243 21.3387 80.747 21.148C81.077 20.9573 81.4767 20.862 81.946 20.862V21.896H81.682C80.56 21.896 79.999 22.5047 79.999 23.722V27H78.998V20.972H79.999V21.951ZM83.4315 19.993C83.2409 19.993 83.0795 19.927 82.9475 19.795C82.8155 19.663 82.7495 19.5017 82.7495 19.311C82.7495 19.1203 82.8155 18.959 82.9475 18.827C83.0795 18.695 83.2409 18.629 83.4315 18.629C83.6149 18.629 83.7689 18.695 83.8935 18.827C84.0255 18.959 84.0915 19.1203 84.0915 19.311C84.0915 19.5017 84.0255 19.663 83.8935 19.795C83.7689 19.927 83.6149 19.993 83.4315 19.993ZM83.9155 20.972V27H82.9145V20.972H83.9155ZM85.0606 23.964C85.0606 23.348 85.1852 22.809 85.4346 22.347C85.6839 21.8777 86.0249 21.5147 86.4576 21.258C86.8976 21.0013 87.3852 20.873 87.9206 20.873C88.4486 20.873 88.9069 20.9867 89.2956 21.214C89.6842 21.4413 89.9739 21.7273 90.1646 22.072V20.972H91.1766V27H90.1646V25.878C89.9666 26.23 89.6696 26.5233 89.2736 26.758C88.8849 26.9853 88.4302 27.099 87.9096 27.099C87.3742 27.099 86.8902 26.967 86.4576 26.703C86.0249 26.439 85.6839 26.0687 85.4346 25.592C85.1852 25.1153 85.0606 24.5727 85.0606 23.964ZM90.1646 23.975C90.1646 23.5203 90.0729 23.1243 89.8896 22.787C89.7062 22.4497 89.4569 22.193 89.1416 22.017C88.8336 21.8337 88.4926 21.742 88.1186 21.742C87.7446 21.742 87.4036 21.83 87.0956 22.006C86.7876 22.182 86.5419 22.4387 86.3586 22.776C86.1752 23.1133 86.0836 23.5093 86.0836 23.964C86.0836 24.426 86.1752 24.8293 86.3586 25.174C86.5419 25.5113 86.7876 25.7717 87.0956 25.955C87.4036 26.131 87.7446 26.219 88.1186 26.219C88.4926 26.219 88.8336 26.131 89.1416 25.955C89.4569 25.7717 89.7062 25.5113 89.8896 25.174C90.0729 24.8293 90.1646 24.4297 90.1646 23.975Z" fill="#2E1F30"/>
<circle cx="56" cy="54" r="2" fill="#11AE60"/>
</svg>
